<?xml version="1.0" encoding="UTF-8"?>
<svg version="1.1" xmlns="http://www.w3.org/2000/svg" width="32" height="32">
<path d="M0 0 C10.56 0 21.12 0 32 0 C32 10.56 32 21.12 32 32 C21.44 32 10.88 32 0 32 C0 21.44 0 10.88 0 0 Z " fill="#768DFE" transform="translate(0,0)"/>
<path d="M0 0 C3.3 0 6.6 0 10 0 C10.34274406 1.66475686 10.67364302 3.33195323 11 5 C11.3403125 6.5778125 11.3403125 6.5778125 11.6875 8.1875 C11.790625 9.115625 11.89375 10.04375 12 11 C11.34 11.66 10.68 12.32 10 13 C10.3609375 13.48210938 10.721875 13.96421875 11.09375 14.4609375 C11.5578125 15.09257812 12.021875 15.72421875 12.5 16.375 C12.9640625 17.00148438 13.428125 17.62796875 13.90625 18.2734375 C15 20 15 20 15 22 C9.06 22 3.12 22 -3 22 C-2.690625 20.783125 -2.38125 19.56625 -2.0625 18.3125 C-0.70131794 12.26923779 -0.36241197 6.17054072 0 0 Z " fill="#6B84FE" transform="translate(17,10)"/>
<path d="M0 0 C3.3 0 6.6 0 10 0 C10.103125 0.66 10.20625 1.32 10.3125 2 C10.85664241 4.8575153 10.85664241 4.8575153 11.83984375 6.796875 C13.82955896 11.06665013 14.22220919 13.46011607 12.6875 18 C12.130625 19.32 11.57375 20.64 11 22 C6.38 22 1.76 22 -3 22 C-3 20.68 -3 19.36 -3 18 C-2.21753906 17.61328125 -1.43507812 17.2265625 -0.62890625 16.828125 C0.38300781 16.30734375 1.39492187 15.7865625 2.4375 15.25 C3.95150391 14.48429687 3.95150391 14.48429687 5.49609375 13.703125 C8.0890755 12.24476422 8.0890755 12.24476422 8.97265625 9.984375 C9.19175263 7.67434125 9.19175263 7.67434125 7 5 C7.33 4.01 7.66 3.02 8 2 C5.03 1.505 5.03 1.505 2 1 C2 4.63 2 8.26 2 12 C1.34 12 0.68 12 0 12 C0 8.04 0 4.08 0 0 Z " fill="#6981F5" transform="translate(3,10)"/>
<path d="M0 0 C3.3 0 6.6 0 10 0 C10.75246984 3.65485352 11.49571879 7.30193777 12 11 C11 12 11 12 8.49609375 12.09765625 C5.6640625 12.06510417 2.83203125 12.03255208 0 12 C0 8.04 0 4.08 0 0 Z " fill="#0C0C0C" transform="translate(17,10)"/>
<path d="M0 0 C3.63 0 7.26 0 11 0 C11 0.33 11 0.66 11 1 C7.7 1 4.4 1 1 1 C1 4.96 1 8.92 1 13 C1.66 13 2.32 13 3 13 C3 9.37 3 5.74 3 2 C4.98 2 6.96 2 9 2 C9 3.32 9 4.64 9 6 C9.65257873 7.672233 10.31867549 9.33927151 11 11 C11 11.99 11 12.98 11 14 C7.37 14 3.74 14 0 14 C0 9.38 0 4.76 0 0 Z " fill="#8990B3" transform="translate(2,9)"/>
<path d="M0 0 C0 8.58 0 17.16 0 26 C-2.08231683 23.39710397 -4.15099935 20.77350098 -6 18 C-5.34 17.67 -4.68 17.34 -4 17 C-4.06023265 15.39479996 -4.14908599 13.79065673 -4.25 12.1875 C-4.29640625 11.29417969 -4.3428125 10.40085937 -4.390625 9.48046875 C-4.79121416 6.83946485 -4.79121416 6.83946485 -7.046875 5.17578125 C-7.69140625 4.78777344 -8.3359375 4.39976563 -9 4 C-2.25 0 -2.25 0 0 0 Z " fill="#8395EF" transform="translate(32,4)"/>
<path d="M0 0 C4 5 4 5 5 7 C4.01 7 3.02 7 2 7 C2 11.62 2 16.24 2 21 C4.31 21 6.62 21 9 21 C6.19350987 24.43015461 4.79707049 24.4009765 0 26 C0 17.42 0 8.84 0 0 Z " fill="#7F94FE" transform="translate(0,2)"/>
<path d="M0 0 C0.66 0 1.32 0 2 0 C2.33 0.99 2.66 1.98 3 3 C3.66 3.33 4.32 3.66 5 4 C4.67 2.68 4.34 1.36 4 0 C7 1 7 1 8.6875 3.9375 C10 7 10 7 10 9 C6.7 9 3.4 9 0 9 C0 6.03 0 3.06 0 0 Z " fill="#7D93FE" transform="translate(18,23)"/>
<path d="M0 0 C3.3 0 6.6 0 10 0 C10.75241109 3.65456815 11.40049704 7.31733897 12 11 C10.68 11.33 9.36 11.66 8 12 C8.20625 11.401875 8.4125 10.80375 8.625 10.1875 C9.30671915 7.71549154 9.30671915 7.71549154 7 5 C7.33 4.01 7.66 3.02 8 2 C5.03 1.505 5.03 1.505 2 1 C2 4.63 2 8.26 2 12 C1.34 12 0.68 12 0 12 C0 8.04 0 4.08 0 0 Z " fill="#F7F7F7" transform="translate(3,10)"/>
<path d="M0 0 C2.31 0 4.62 0 7 0 C5.68 3.3 4.36 6.6 3 10 C2.01 9.67 1.02 9.34 0 9 C0 6.03 0 3.06 0 0 Z " fill="#6C84FE" transform="translate(14,0)"/>
<path d="M0 0 C-1.48302402 4.44907205 -5.08285501 6.74579392 -9 9 C-9.66 9 -10.32 9 -11 9 C-11 7.68 -11 6.36 -11 5 C-9.54462432 4.16151196 -8.08559627 3.32936066 -6.625 2.5 C-5.81289062 2.0359375 -5.00078125 1.571875 -4.1640625 1.09375 C-2 0 -2 0 0 0 Z " fill="#6982FE" transform="translate(11,23)"/>
<path d="M0 0 C1.98 0 3.96 0 6 0 C6.66 1.32 7.32 2.64 8 4 C7 5 7 5 3.4375 5.0625 C2.303125 5.041875 1.16875 5.02125 0 5 C0 3.35 0 1.7 0 0 Z " fill="#7C8AD1" transform="translate(19,16)"/>
<path d="M0 0 C2 2 2 2 2.1953125 4.8203125 C2.16050781 6.45613281 2.16050781 6.45613281 2.125 8.125 C2.10695313 9.22070312 2.08890625 10.31640625 2.0703125 11.4453125 C2.04710937 12.28835937 2.02390625 13.13140625 2 14 C0 13 0 13 -1.125 10.25 C-1.92926951 7.26271326 -2.34000631 5.06005683 -2 2 C-1.34 1.34 -0.68 0.68 0 0 Z " fill="#7680B7" transform="translate(15,8)"/>
<path d="M0 0 C2.3125 0 2.3125 0 5 1 C6.38293093 3.55518097 7.21791649 6.20866129 8 9 C4.47165622 8.39958856 4.09432115 8.12314151 1.75 5.0625 C-0 2 -0 2 0 0 Z " fill="#6A82FE" transform="translate(0,0)"/>
<path d="M0 0 C4 1 4 1 6.25 3.9375 C8 7 8 7 8 9 C6.68 9 5.36 9 4 9 C2.68 6.03 1.36 3.06 0 0 Z " fill="#6882FE" transform="translate(24,23)"/>
<path d="M0 0 C0.66 0 1.32 0 2 0 C0.76341941 3.42437702 -0.35280441 6.44734711 -3 9 C-6.1875 9.25 -6.1875 9.25 -9 9 C-8.2575 8.443125 -7.515 7.88625 -6.75 7.3125 C-3.92455792 5.09173001 -3.92455792 5.09173001 -1.8125 2.25 C-1.214375 1.5075 -0.61625 0.765 0 0 Z " fill="#8C9EFF" transform="translate(11,23)"/>
<path d="M0 0 C2.31 0 4.62 0 7 0 C7 1.32 7 2.64 7 4 C4.69 4 2.38 4 0 4 C0 2.68 0 1.36 0 0 Z " fill="#7586DA" transform="translate(5,17)"/>
<path d="M0 0 C0.928125 0.0825 1.85625 0.165 2.8125 0.25 C2.07 0.806875 1.3275 1.36375 0.5625 1.9375 C-2.26294208 4.15826999 -2.26294208 4.15826999 -4.375 7 C-5.2721875 8.11375 -5.2721875 8.11375 -6.1875 9.25 C-6.8475 9.25 -7.5075 9.25 -8.1875 9.25 C-4.98850897 0.39125561 -4.98850897 0.39125561 0 0 Z " fill="#8C9EFF" transform="translate(27.1875,-0.25)"/>
<path d="M0 0 C0.99 0.33 1.98 0.66 3 1 C1.35 3.64 -0.3 6.28 -2 9 C-0.02 9 1.96 9 4 9 C4 9.33 4 9.66 4 10 C1.36 10 -1.28 10 -4 10 C-3.43454163 6.04179141 -2.19097652 3.3340947 0 0 Z " fill="#6B7DD8" transform="translate(21,0)"/>
<path d="M0 0 C1.32 0 2.64 0 4 0 C4.99 2.97 5.98 5.94 7 9 C5.68 8.67 4.36 8.34 3 8 C1.953125 6.15234375 1.953125 6.15234375 1.25 3.9375 C1.00765625 3.20402344 0.7653125 2.47054688 0.515625 1.71484375 C0.34546875 1.14894531 0.1753125 0.58304687 0 0 Z " fill="#8C9FFF" transform="translate(4,0)"/>
<path d="M0 0 C3 1 3 1 4.6875 3.9375 C6 7 6 7 6 9 C4.68 9 3.36 9 2 9 C1.34 6.03 0.68 3.06 0 0 Z " fill="#8DA0FE" transform="translate(22,23)"/>
<path d="M0 0 C-2.52956528 3.0916909 -5.22454612 3.90931332 -9 5 C-9 3.68 -9 2.36 -9 1 C-5.8035914 -0.06546953 -3.34252724 -0.07427838 0 0 Z " fill="#8B9EFC" transform="translate(9,23)"/>
<path d="M0 0 C1.98 0 3.96 0 6 0 C6 1.32 6 2.64 6 4 C4.02 4 2.04 4 0 4 C0 2.68 0 1.36 0 0 Z " fill="#8C9BE8" transform="translate(19,11)"/>
<path d="M0 0 C0 1.32 0 2.64 0 4 C-2.31 4.66 -4.62 5.32 -7 6 C-7.66 5.34 -8.32 4.68 -9 4 C-2.25 0 -2.25 0 0 0 Z " fill="#8EA0FB" transform="translate(32,4)"/>
<path d="M0 0 C0.66 0.66 1.32 1.32 2 2 C1.01 4.97 0.02 7.94 -1 11 C-1.99 10.67 -2.98 10.34 -4 10 C-2.68 6.7 -1.36 3.4 0 0 Z " fill="#8C9EFC" transform="translate(15,21)"/>
<path d="M0 0 C0.99 0 1.98 0 3 0 C3.33 2.97 3.66 5.94 4 9 C0.68987756 5.68987756 0.49648935 4.46840411 0 0 Z " fill="#6A82FE" transform="translate(8,0)"/>
<path d="M0 0 C1.32 0 2.64 0 4 0 C4 1.98 4 3.96 4 6 C3.01 6 2.02 6 1 6 C1 4.68 1 3.36 1 2 C0.34 1.67 -0.32 1.34 -1 1 C-0.67 0.67 -0.34 0.34 0 0 Z " fill="#788EFE" transform="translate(28,8)"/>
<path d="M0 0 C0.99 0.33 1.98 0.66 3 1 C1.02 5.455 1.02 5.455 -1 10 C-1.33 10 -1.66 10 -2 10 C-1.85950482 8.52031676 -1.71245174 7.04125484 -1.5625 5.5625 C-1.48128906 4.73878906 -1.40007813 3.91507812 -1.31640625 3.06640625 C-1 1 -1 1 0 0 Z " fill="#8EA0FC" transform="translate(18,0)"/>
<path d="M0 0 C2.97 0 5.94 0 9 0 C7.68 0.33 6.36 0.66 5 1 C5.33 2.32 5.66 3.64 6 5 C5.01 4.67 4.02 4.34 3 4 C3 3.01 3 2.02 3 1 C2.01 0.67 1.02 0.34 0 0 Z " fill="#6C79B9" transform="translate(17,22)"/>
</svg>
